<svg id="strava_outlined" xmlns="http://www.w3.org/2000/svg" viewBox="0 0 162.02 30.21"><defs><style>.cls-1{fill:#999}</style></defs><path class="cls-1" d="M81.34 22.94A14.15 14.15 0 0177 22.3a9.54 9.54 0 01-3.44-1.91l2.7-3.21a8 8 0 002.59 1.36 9.31 9.31 0 002.7.41 2.13 2.13 0 001-.17.53.53 0 00.3-.47.63.63 0 00-.44-.54 7.69 7.69 0 00-1.65-.45q-1.27-.26-2.43-.61a8.35 8.35 0 01-2-.88 4.27 4.27 0 01-1.39-1.36 3.69 3.69 0 01-.52-2 4.78 4.78 0 01.42-2 4.57 4.57 0 011.23-1.62 5.85 5.85 0 012-1.08 8.9 8.9 0 012.75-.39 12.87 12.87 0 013.85.52 9.18 9.18 0 013 1.55l-2.46 3.41a7.57 7.57 0 00-2.28-1.13 7.93 7.93 0 00-2.26-.36 1.56 1.56 0 00-.83.17.51.51 0 00-.27.45.62.62 0 00.41.52 7 7 0 001.6.45 22.37 22.37 0 012.64.62 7.8 7.8 0 012 .94 4.16 4.16 0 011.32 1.37 3.81 3.81 0 01.46 1.89 4.69 4.69 0 01-.46 2.22 4.57 4.57 0 01-1.34 1.61 6.35 6.35 0 01-2.09 1 9.87 9.87 0 01-2.77.33z"/><path class="cls-1" d="M92.18 11.82h-4.45V7.55h13.95v4.27h-4.45v10.84h-5.05V11.82zM102.39 7.55h7.38a10.1 10.1 0 013.33.45 5.54 5.54 0 012.1 1.26 4.61 4.61 0 011 1.55 5.48 5.48 0 01.35 2 4.77 4.77 0 01-.8 2.8 5.5 5.5 0 01-2.18 1.81l3.52 5.14h-5.76l-2.85-4.32h-1.08v4.32h-5.05V7.55zm7.23 7.19a2.32 2.32 0 001.42-.39 1.28 1.28 0 00.52-1.08 1.23 1.23 0 00-.52-1.09 2.44 2.44 0 00-1.4-.36h-2.2v3h2.18zM146.34 16.16l3.29 6.5h4.84l-8.13-16.05-8.14 16.05h4.84l3.3-6.5z"/><path class="cls-1" d="M123.7 16.16l3.29 6.5h4.84L123.7 6.61l-8.12 16.05h4.83l3.29-6.5zM135.02 14.05l-3.29-6.5h-4.84l8.13 16.06 8.13-16.06h-4.84l-3.29 6.5zM7.55 22.8v-6.3h2.51a2.25 2.25 0 011.56.53 1.85 1.85 0 01.59 1.46 1.86 1.86 0 01-.58 1.44 2.23 2.23 0 01-1.57.53H8.61v2.34H7.55zm1.06-3.32H10a1.14 1.14 0 00.77-.27 1 1 0 000-1.49 1.23 1.23 0 00-.77-.24H8.61v2zM17.11 22.75a2.74 2.74 0 01-1 .18 2.7 2.7 0 01-1-.19 2.5 2.5 0 01-1.48-1.62 4.75 4.75 0 01-.23-1.53 3.33 3.33 0 01.8-2.38 2.55 2.55 0 011.92-.85 2.52 2.52 0 011.9.85 3.36 3.36 0 01.8 2.39 4.75 4.75 0 01-.23 1.53 2.63 2.63 0 01-.61 1 2.53 2.53 0 01-.87.62zm-2.17-1.37a1.46 1.46 0 002.32 0 2.89 2.89 0 00.45-1.78 2.64 2.64 0 00-.46-1.67 1.43 1.43 0 00-2.29 0 2.62 2.62 0 00-.46 1.67 2.88 2.88 0 00.44 1.78zM21.22 22.8L20 16.5h1.1l.9 4.43 1.49-4.44h.6l1.49 4.44.86-4.44h1.06l-1.21 6.3h-1.12l-1.42-4.32-1.41 4.33h-1.12zM29.24 22.8v-6.3h3.92v1H30.3v1.6h2.61v.9H30.3v1.77h2.86v1h-3.92zM35.15 22.8v-6.3h2.51a2.28 2.28 0 011.56.52 2.06 2.06 0 01.21 2.63 1.9 1.9 0 01-1 .64l1.36 2.51h-1.21l-1.28-2.42h-1.1v2.42h-1.05zm1.06-3.34h1.37a1 1 0 100-2h-1.37v2zM41.56 22.8v-6.3h3.92v1h-2.85v1.6h2.61v.9h-2.61v1.77h2.86v1h-3.93zM47.47 22.8v-6.3h2.06a2.73 2.73 0 011 .19 2.67 2.67 0 01.86.56 2.57 2.57 0 01.62 1 4 4 0 01.23 1.41 4.39 4.39 0 01-.23 1.5 2.31 2.31 0 01-.64 1 2.68 2.68 0 01-.88.51 3.17 3.17 0 01-1 .16h-2zm1.06-1h.93a1.58 1.58 0 001.23-.48 2.54 2.54 0 00.44-1.7 2.53 2.53 0 00-.45-1.62 1.44 1.44 0 00-1.17-.53h-1v4.34zM57 22.8v-6.3h2.59a1.86 1.86 0 011.34.48 1.58 1.58 0 01.5 1.19 1.32 1.32 0 01-.73 1.21 1.79 1.79 0 01.68.54 1.46 1.46 0 01.28.92q0 1.93-2.31 1.93H57zm1-3.72h1.39a1.06 1.06 0 00.69-.2.72.72 0 00.24-.59.74.74 0 00-.25-.6 1.06 1.06 0 00-.7-.21H58v1.6zm0 2.74h1.58a1.89 1.89 0 00.42-.08.77.77 0 00.32-.15.8.8 0 00.19-.28 1.06 1.06 0 00.08-.44.74.74 0 00-.35-.73 2.43 2.43 0 00-1.06-.14H58v1.85zM64.57 22.8v-2.66l-2.06-3.64h1.13l1.44 2.68 1.45-2.68h1.13l-2.06 3.65v2.65h-1z"/></svg>