<?xml version="1.0" encoding="UTF-8" standalone="no"?><svg xmlns="http://www.w3.org/2000/svg" viewBox="0 0 193 48"><g fill="none" fill-rule="evenodd"><rect fill="#FC4C02" x="4" y="4" width="185" height="40" rx="2"/><path d="M27 25.164l1.736.35c-.112 1.1013-.5133 1.9927-1.204 2.674s-1.582 1.022-2.674 1.022c-1.2413 0-2.2563-.434-3.045-1.302-.7887-.868-1.183-2.1653-1.183-3.892 0-1.6053.413-2.8443 1.239-3.717.826-.8727 1.8177-1.309 2.975-1.309 1.0173 0 1.876.3197 2.576.959.7.6393 1.1107 1.4817 1.232 2.527l-1.708.266c-.2427-1.484-.938-2.226-2.086-2.226-.7187 0-1.3183.2893-1.799.868-.4807.5787-.721 1.4653-.721 2.66 0 1.2227.2357 2.135.707 2.737.4713.602 1.0757.903 1.813.903 1.2227 0 1.9367-.84 2.142-2.52zm6.5187 2.604c.5507 0 .9964-.217 1.337-.651.3407-.434.511-1.043.511-1.827s-.1703-1.393-.511-1.827c-.3406-.434-.7863-.651-1.337-.651-.56 0-1.0103.2147-1.351.644-.3406.4293-.511 1.0407-.511 1.834 0 .8027.1704 1.4163.511 1.841.3407.4247.791.637 1.351.637zm0 1.442c-.9986 0-1.8223-.3453-2.471-1.036-.6486-.6907-.973-1.652-.973-2.884 0-1.2133.3337-2.17 1.001-2.87.6674-.7 1.4817-1.05 2.443-1.05.9614 0 1.771.35 2.429 1.05.658.7.987 1.6567.987 2.87 0 1.232-.3196 2.1933-.959 2.884-.6393.6907-1.4583 1.036-2.457 1.036zm5.2448-.21v-7.42h1.54v.714h.028c.2053-.2613.49-.4807.854-.658s.7467-.266 1.148-.266c.8213 0 1.4677.245 1.939.735.4713.49.707 1.169.707 2.037V29h-1.582v-4.438c0-1.148-.4807-1.722-1.442-1.722-.4853 0-.8727.14-1.162.42-.2893.28-.434.658-.434 1.134V29h-1.596zm8.4648 0v-7.42h1.54v.714h.028c.2053-.2613.49-.4807.854-.658s.7466-.266 1.148-.266c.8213 0 1.4676.245 1.939.735.4713.49.707 1.169.707 2.037V29h-1.582v-4.438c0-1.148-.4807-1.722-1.442-1.722-.4854 0-.8727.14-1.162.42-.2894.28-.434.658-.434 1.134V29h-1.596zm13.3927-2.464l1.148.938c-.7187 1.1573-1.7453 1.736-3.08 1.736-1.0267 0-1.8643-.357-2.513-1.071-.6487-.714-.973-1.6637-.973-2.849 0-1.1853.322-2.135.966-2.849.644-.714 1.4607-1.071 2.45-1.071.9893 0 1.799.3547 2.429 1.064.63.7093.945 1.6613.945 2.856v.476h-5.18c.0187.616.189 1.1083.511 1.477s.7677.553 1.337.553c.2707 0 .5133-.0373.728-.112a1.6185 1.6185 0 00.567-.336c.1633-.1493.287-.28.371-.392.084-.112.182-.252.294-.42zm-3.794-1.974h3.612c-.028-.5227-.196-.9497-.504-1.281-.308-.3313-.7467-.497-1.316-.497-.532 0-.9567.1773-1.274.532s-.49.77-.518 1.246zm11.5028 1.484l1.582.336c-.1494.896-.49 1.5913-1.022 2.086-.532.4947-1.2367.742-2.114.742-1.008 0-1.834-.3453-2.478-1.036-.644-.6907-.966-1.652-.966-2.884 0-1.1853.3243-2.135.973-2.849.6486-.714 1.4676-1.071 2.457-1.071.8493 0 1.5493.2543 2.1.763.5506.5087.8726 1.169.966 1.981l-1.498.252c-.1587-1.036-.6767-1.554-1.554-1.554-.5694 0-1.022.217-1.358.651-.336.434-.504 1.043-.504 1.827s.1633 1.393.49 1.827c.3266.434.784.651 1.372.651.868 0 1.386-.574 1.554-1.722zm3.6907.476v-3.57h-1.12V21.58h1.162v-1.82h1.512v1.82h1.862v1.372h-1.848v3.402c0 .4107.063.6977.189.861s.385.245.777.245h.588V29h-.714c-.896 0-1.5213-.1983-1.876-.595-.3547-.3967-.532-1.0243-.532-1.883zM81.992 29l-1.638-7.42h1.568l1.05 5.166H83l1.764-5.166h1.442l1.652 5.152h.028l1.19-5.152h1.54L88.838 29h-1.54l-1.806-5.572h-.028L83.518 29h-1.526zm10.4107 0v-7.42h1.596V29h-1.596zm-.028-8.638V18.78h1.652v1.582h-1.652zm4.3208 6.16v-3.57h-1.12V21.58h1.162v-1.82h1.512v1.82h1.862v1.372h-1.848v3.402c0 .4107.063.6977.189.861s.385.245.777.245h.588V29h-.714c-.896 0-1.5213-.1983-1.876-.595-.3547-.3967-.532-1.0243-.532-1.883zM101.8703 29V18.78h1.596v3.528h.028c.168-.252.4433-.4713.826-.658.3826-.1867.77-.28 1.162-.28.7933 0 1.4373.2427 1.932.728.4946.4853.742 1.148.742 1.988V29h-1.582v-4.536c0-.4853-.1307-.8773-.392-1.176-.2614-.2987-.6394-.448-1.134-.448-.476 0-.8587.14-1.148.42-.2894.28-.434.6393-.434 1.078V29h-1.596zM160.0156 18.7244l-2.442 4.9692-2.4434-4.9692h-3.5914L157.5736 31l6.0306-12.2756h-3.5886zm-19.8483 4.339c0-.3734-.1288-.6521-.3849-.8321-.255-.1816-.6035-.2719-1.0398-.2719h-1.6345v2.2607h1.618c.4484 0 .8012-.0993 1.0563-.2972.256-.1984.385-.4744.385-.8263v-.0332zM149.1755 18l6.033 12.2756h-3.5914l-2.4416-4.9695-2.4403 4.9695h-6.7125l-2.1144-3.3003h-.8002v3.3003h-3.7473V18.7244h5.4777c1.0032 0 1.8277.1185 2.473.355.6472.2361 1.1663.5587 1.5615.9658.3423.351.5982.7482.77 1.1865.1696.4404.2559.9592.2559 1.5508v.035c0 .8463-.1976 1.5618-.5938 2.1443-.3937.5831-.9327 1.0466-1.6174 1.3864l1.9476 2.9306L149.1755 18zm16.7914 0l-6.0323 12.2756h3.5914l2.441-4.9695 2.4426 4.9695H172L165.967 18zm-43.4793 3.99h3.2987v8.2856h3.748V21.99h3.2996v-3.2656h-10.3463V21.99zm-.135 3.0706c.229.4071.344.903.344 1.485v.0338c0 .6045-.1167 1.1501-.3528 1.6335-.2342.4847-.566.8941-.9926 1.2302-.4277.335-.9458.5933-1.5538.7751-.6077.1826-1.2923.2737-2.049.2737-1.1416 0-2.2075-.1636-3.1951-.4872-.9876-.3255-1.8383-.8124-2.5533-1.46l2.0012-2.4582c.6079.4833 1.2497.8303 1.921 1.039.6723.2091 1.3403.3137 2.0022.3137.3422 0 .5868-.0445.7366-.1314.1507-.0884.2239-.2097.2239-.363v-.0329c0-.1665-.1106-.3057-.3283-.4138-.2177-.1099-.628-.2248-1.2253-.3456-.6296-.133-1.2305-.2877-1.801-.4632-.5712-.1745-1.0728-.4012-1.5048-.6767-.4326-.2743-.7766-.6221-1.0335-1.0398-.2561-.4184-.3841-.9305-.3841-1.535v-.0333c0-.5506.1036-1.0627.3125-1.5352.2064-.4731.5113-.8865.9118-1.2375.4007-.3523.898-.6268 1.491-.8262.5904-.198 1.2713-.2967 2.0412-.2967 1.0877 0 2.0404.1324 2.8572.3974.8169.262 1.5501.6587 2.2024 1.1865l-1.8253 2.6085c-.5338-.3973-1.0972-.686-1.6895-.868-.5938-.1818-1.1495-.273-1.6737-.273-.277 0-.4823.0441-.6157.1325-.1358.088-.2002.204-.2002.3464v.0328c0 .1554.1.2873.304.3977.2037.1094.598.2253 1.1842.3464.7157.131 1.3663.2913 1.955.4772.586.189 1.092.4272 1.5126.7194.4217.2916.7481.6394.9772 1.048z" fill="#FFF"/></g></svg>