<svg version="1" xmlns="http://www.w3.org/2000/svg" width="1358.667" height="1358.667" viewBox="0 0 1019.000000 1019.000000"><path d="M203.3 182.1c-4.9 1.4-10.9 7.7-12.3 12.7-2.1 8.2 0 16.8 5.4 21.5 6.3 5.6 7.4 5.7 62.9 5.7H284l7.4 15.2c4.1 8.4 12 24.7 17.6 36.3 5.6 11.5 13.5 27.7 17.5 36 4 8.2 9.3 19.2 11.9 24.4 2.5 5.2 4.6 10.1 4.6 10.9 0 .8-2 5.1-4.4 9.6-2.4 4.5-8.3 15.7-13.1 25.1-4.8 9.3-10.5 20.1-12.5 24-2.1 3.8-7 13.3-11 21-4 7.7-7.8 14.9-8.4 16-.6 1.1-1.2 2.1-1.2 2.3-.1.1-2.6-.6-5.5-1.7-29.9-11.1-70.3-15.2-102.4-10.6-1.6.3-4.6.7-6.5 1-1.9.2-4.6.7-6 1-1.4.3-3.8.8-5.5 1-14.1 2.5-35.3 9.9-53 18.5-41.1 19.9-74 51.8-93.2 90.5C14 555 6.5 576.3 4.5 587c-.2 1.4-1.2 6.5-2.1 11.5-1.8 10.2-2.6 39.1-1.3 50.3 1.3 11.5 2.4 18.3 4.5 27.2 14.9 62.1 56.8 113.3 113.9 139.2 15.1 6.8 39.4 14.1 54 16.3 2.2.3 5.4.8 7 1 7.9 1.4 38.5 2 46.5 1.1 1.9-.3 5.8-.7 8.5-1 9.8-1.1 12.7-1.6 21.8-3.7 11.2-2.5 10.7-2.3 18.7-4.8 40.2-12.2 76.1-35.7 102.7-67.1 7.2-8.5 25.3-36.7 25.3-39.5 0-.3 1.8-4.3 4-9s4-9.1 4-9.8c0-.7.4-1.7.9-2.2 2.7-3.2 7.6-29.9 7.4-41.3l-.1-3.2 44.4-.1c24.4-.1 44.8-.2 45.4-.3.5 0 1.9-.9 3-1.8 1.1-1 2.8-1.8 3.8-1.8s2.8-1 4-2.3c1.8-1.9 16.4-27.9 32.2-57.2 2.4-4.4 6.4-11.8 9-16.5 2.6-4.7 6.6-12.1 9-16.5 2.3-4.4 5.4-10 6.8-12.5 3.9-7.1 24.6-44.8 28.5-52 1.9-3.6 9.9-18.2 17.7-32.5 7.9-14.3 15.5-28.3 17-31 1.5-2.8 4.6-8.4 6.8-12.5 2.3-4.1 5.6-10.3 7.4-13.8 1.8-3.4 3.6-6.1 4.1-5.9.8.2 2.9 4.1 21.2 39.2 4.9 9.3 9.7 18.5 10.7 20.3 2.4 4.4 2.4 4.7-1.9 7.3-21.5 13.3-45.9 37.6-61.5 61.3-12.6 19.1-25.5 49.5-28.3 66.6-.3 1.9-.8 4.3-1.1 5.3-.3 1-.8 3.2-1 5-.3 1.8-.7 4.3-.9 5.7-.3 1.4-.8 6.5-1.2 11.5-2.9 38.2 3.9 73.1 21.2 108 14.8 29.9 39.2 56.3 71 76.8 24.1 15.7 59.4 28.7 87 32.2 2.8.4 6.1.9 7.5 1.2 4.9.9 38.6 1.1 47.7.2 7.5-.7 28.5-4.5 35.3-6.3 23.2-6.2 46.9-16.6 62.5-27.4 17.6-12.2 31.5-25 46.4-42.8 4.6-5.4 16.7-23.9 20.5-31.4 2.2-4.1 4.2-8 4.6-8.5 1.2-1.7 8.2-19.6 10.2-26 2.1-6.7 5.3-19.9 6.3-26 .4-2.2.9-5.3 1.1-6.8 2.4-13.7 2.4-40.4-.1-56.7-5.4-35.5-19.9-69.5-42.3-99.3-31.2-41.3-77.4-69.2-126.7-76.3-17.1-2.4-50.4-2.4-67.2.1-1.8.3-4.5.7-6 .9-5.2.8-18.5 3.7-20.9 4.6-1.3.5-2.4.7-2.4.5 0-.2-1-.1-2.3.4-1.3.5-4.7 1.6-7.5 2.5l-5.2 1.5-3.4-7.2c-1.9-4-7.8-16.2-13.1-27.2-5.4-11-12.6-25.9-16-33-3.4-7.2-10.4-21.6-15.5-32-5.1-10.5-12-24.9-15.5-32-3.5-7.2-9.7-20-13.8-28.5-4.1-8.5-7.4-15.6-7.2-15.8.2-.2 22.4-.3 49.3-.3 42.6 0 49.5.2 52.8 1.6 7.1 3 11.1 8.2 12 15.9 1.1 8.5-.9 12.1-12.5 23-5.7 5.4-7.4 17-3.6 24.9 1.1 2.4 3.4 4.7 6.4 6.5 4 2.4 5.6 2.7 13.1 2.7 8.2 0 8.7-.2 14.2-3.8 9.1-6.1 14.3-11.8 21.1-22.8 5.1-8.5 7.5-24.3 5.2-35.2-3.7-17.5-17.8-35.2-34-42.8-7.9-3.6-9.5-4.1-18.5-5.9-2.5-.5-36.2-.9-75.1-.9l-70.5-.1-5.2 2.6c-7.3 3.6-10.5 9.1-10.7 18.8-.2 7.6-.7 6.5 13.4 36.6 13.9 29.6 20 43.3 19.7 43.9-.7 1-245.6.6-246.6-.5-1-1-50.9-100.8-50.6-101.1.1-.1 12.5-.3 27.4-.3 29.1-.1 33-.7 38.1-5.3 9-8.3 7.8-26.3-2.3-35-5.7-4.8-2.8-4.7-98.5-4.6-52.2 0-90.9.5-92.8 1zm425.8 180.1c.1.7 0 2-.1 2.8-.2 1.3-9.2 18.2-14.2 26.5-1 1.6-2.2 3.9-2.7 5.1-.5 1.1-3 5.8-5.6 10.5-2.6 4.6-6 10.6-7.5 13.4-10 18.1-20.4 37.1-27.8 50.5-4.6 8.5-9.6 17.5-11 20-1.3 2.5-7.6 13.9-13.9 25.5-6.4 11.5-12.3 22.3-13.3 24-1 1.6-3.2 5.7-5 9-1.8 3.3-4.1 7.3-5 9-.9 1.6-4 7.4-6.9 12.7-5 9.3-7.1 12.2-7.1 9.9 0-1-4.7-11-22.5-47.6-4.8-9.9-11.4-23.6-14.7-30.5-6.2-12.8-14.3-29.7-25.3-52.5-3.4-7.2-10.2-21.1-15-31-4.8-9.9-11.2-23.1-14.1-29.4-3-6.2-7.4-15.3-9.8-20.2l-4.3-8.9h112.8c89.6 0 112.9.3 113 1.2zM449.4 549.5c16 31.9 29.4 58.8 29.8 59.7.7 1.7-1 1.8-27 1.8h-27.7l-.1-3.7c-.1-10.7-3.3-27.1-8.1-41.8-7-21.8-19.8-44.2-37.8-66.5-7.9-9.8-32.6-32.6-44.9-41.6l-2.9-2.1 7-11.9c3.9-6.5 11.6-19.8 17.3-29.4 5.6-9.6 11.2-19 12.3-20.9l2-3.3 25.5 50.8c14 28 38.5 77 54.6 108.9zm-220.9-85.1c4.3.4 8.2.9 8.5 1.1.3.2 2.3.6 4.5.9 6.2 1 18.5 4.6 24.3 7.2l5.4 2.4-3 5.2c-1.6 2.9-4.7 8.7-6.9 12.8-2.2 4.1-9.3 17.4-15.8 29.5-6.5 12.1-13.6 25.4-15.8 29.5-2.2 4.1-6.8 12.7-10.2 19-3.4 6.3-8 14.9-10.2 19-2.2 4.1-6.2 11.5-8.8 16.5-2.7 4.9-5.5 10.2-6.2 11.6-2.3 4.6-1.8 11.9 1.1 17.9 3.4 7 5 8.9 10.8 12.3l4.7 2.7H382l-.6 3.2c-.4 1.8-1.5 6.4-2.6 10.3-1 3.8-2.1 7.9-2.3 9-1.3 6.2-11 26.6-17.2 36.2-11.1 17-29.1 36-45.3 47.5-8.2 5.9-27.7 16.4-39 21.1-6.6 2.8-25.9 8.1-33.2 9.2-1.8.2-6 .9-9.3 1.4-6.2 1-39.3.8-45.5-.3-35.4-6.3-62-18-86.4-37.9-8.4-6.9-22.3-21.2-26.9-27.7-16.9-24.1-25.1-42.5-30.4-68-1.9-9-2.5-39.9-1.1-51 3.3-25.5 17.4-57.4 34.4-78 11.3-13.6 31.7-31.3 44.7-38.7 18.8-10.7 42.2-19.5 58.5-21.9 2-.3 4.4-.7 5.2-.9.8-.2 5.3-.7 10-1.1 4.7-.3 8.6-.7 8.7-.8.5-.4 17.3.1 24.8.8zm593 0c6.9.7 11.3 1.4 25.5 4.2 10.6 2.1 35.4 12.4 47.3 19.6 28.1 17.1 53.2 44.7 65.8 72.4 6.2 13.8 7.6 17.6 10.8 31.5 3 12.5 3.3 15.4 3.7 36.9.3 20.5-.5 28.1-4.5 43.8-3.2 12.3-10.4 29.3-16.6 39.1-4.8 7.5-7 10.7-12.3 17.2-26.3 32.7-64.6 53.8-109.7 60.6-9.2 1.4-43.3.7-52-1-18.1-3.6-35-8.8-44.1-13.5-1.1-.5-4.4-2.2-7.4-3.8-5.5-2.7-19.8-11.6-23.4-14.4-22.9-18-37.6-35.6-49.8-59.5-6.6-12.9-12.6-30.6-14.2-42-.4-2.3-.9-5.2-1.2-6.5-1.3-5.6-1.2-32.9.1-42.5 6.3-45.8 31-85.7 71.6-115.7l3.6-2.7 6.1 12.2c6.6 13.2 37.4 76 55.8 113.4 6.3 12.8 12.4 24.2 13.6 25.3 5.7 5.4 12.8 7.1 23.5 5.5 7.5-1.1 13.6-9.4 13.5-18.2-.1-4.6-.3-4.9-32.7-70.8-9.2-18.7-22.2-45.1-28.9-58.7L753.4 472l3.1-1c5.8-1.9 28.1-6.1 35.5-6.7 4.1-.3 7.6-.6 7.7-.7.5-.4 14.1.1 21.8.8zm-503.8 37.7c6.7 5 21.1 19 26.7 25.9 8.3 10.2 19.2 28.8 25.8 44 3.3 7.6 9.4 27 11.3 36.2l.5 2.8h-68c-37.4 0-68-.2-68-.5s2-4 4.4-8.3c4-7.1 7.7-13.8 13.1-23.7 1.2-2.2 6.2-11.2 11.2-20 4.9-8.8 10.5-18.7 12.3-22 1.8-3.3 4.9-8.9 7-12.5 2-3.6 6.3-11.1 9.4-16.8 3.1-5.6 6.1-10.2 6.6-10.2s4 2.3 7.7 5.1z"/></svg>